<svg xmlns="http://www.w3.org/2000/svg" width="224.135" height="46" viewBox="0 0 224.135 46">
  <g id="Grupo_858" data-name="Grupo 858" style="isolation: isolate">
    <g id="Logo_Gerhonte" data-name="Logo Gerhonte" transform="translate(0)">
      <g id="Grupo_28" data-name="Grupo 28">
        <g id="Grupo_26" data-name="Grupo 26">
          <g id="Grupo_24" data-name="Grupo 24">
            <g id="Grupo_23" data-name="Grupo 23">
              <g id="Grupo_20" data-name="Grupo 20" transform="translate(0 6.581)">
                <rect id="Rectángulo_13" data-name="Rectángulo 13" width="13.14" height="13.14" rx="2" fill="#087021"/>
                <rect id="Rectángulo_14" data-name="Rectángulo 14" width="13.14" height="13.14" rx="2" transform="translate(0 26.279)" fill="#087021"/>
                <rect id="Rectángulo_15" data-name="Rectángulo 15" width="13.14" height="13.14" rx="2" transform="translate(26.279 26.279)" fill="#087021"/>
                <path id="Trazado_46" data-name="Trazado 46" d="M458.287,420.066h10.2a.992.992,0,0,1,.992.992v3.382Z" transform="translate(-430.058 -393.787)" fill="#013e10"/>
              </g>
              <g id="Grupo_22" data-name="Grupo 22" transform="translate(26.337)">
                <g id="Grupo_21" data-name="Grupo 21">
                  <path id="Trazado_47" data-name="Trazado 47" d="M470.048,319.533q-8.376-.6-16.751-.837a1.133,1.133,0,0,1-1.09-1.09q-.233-8.375-.837-16.751a.836.836,0,0,1,.877-.978,106.36,106.36,0,0,1,15.076,2.513,1.78,1.78,0,0,1,1.19,1.19,106.312,106.312,0,0,1,2.513,15.076A.836.836,0,0,1,470.048,319.533Z" transform="translate(-451.367 -299.873)" fill="#7bcf14"/>
                </g>
              </g>
            </g>
          </g>
          <g id="Grupo_25" data-name="Grupo 25" transform="translate(55.73 19.274)">
            <path id="Trazado_48" data-name="Trazado 48" d="M576.667,373.783l-1.37,1.3a10.456,10.456,0,0,0-3.238-2.2,8.71,8.71,0,0,0-3.43-.751,8.18,8.18,0,0,0-3.959,1.021,7.412,7.412,0,0,0-2.914,2.77,7.145,7.145,0,0,0-1.033,3.694,7.294,7.294,0,0,0,1.069,3.79,7.6,7.6,0,0,0,2.955,2.824,8.5,8.5,0,0,0,4.133,1.027,7.062,7.062,0,0,0,4.614-1.538,6.068,6.068,0,0,0,2.235-3.989H570.1v-1.706h7.617a8.869,8.869,0,0,1-2.433,6.506,8.71,8.71,0,0,1-6.446,2.409,9.687,9.687,0,0,1-7.761-3.34,8.878,8.878,0,0,1-2.2-5.947,9.118,9.118,0,0,1,1.261-4.674,8.969,8.969,0,0,1,3.46-3.382,10.078,10.078,0,0,1,4.974-1.22,11.063,11.063,0,0,1,4.229.811A12.621,12.621,0,0,1,576.667,373.783Z" transform="translate(-558.874 -370.371)" fill="#087021"/>
            <path id="Trazado_49" data-name="Trazado 49" d="M637.879,372h10.128v1.73h-8.362v5.539h8.29V381h-8.29v6.945h8.29v1.73H637.879Z" transform="translate(-616.279 -371.552)" fill="#087021"/>
            <path id="Trazado_50" data-name="Trazado 50" d="M684.188,372h3.52a21.34,21.34,0,0,1,3.989.241,4.554,4.554,0,0,1,2.559,1.546,4.411,4.411,0,0,1,.985,2.917,4.718,4.718,0,0,1-.679,2.538,4.235,4.235,0,0,1-1.94,1.654,8.9,8.9,0,0,1-3.484.572l6.356,8.206h-2.185l-6.356-8.206h-1v8.206h-1.766Zm1.766,1.73v6.007l3.045.024a7.562,7.562,0,0,0,2.617-.337,2.724,2.724,0,0,0,1.324-1.075,2.99,2.99,0,0,0,.475-1.652,2.863,2.863,0,0,0-.481-1.616,2.682,2.682,0,0,0-1.264-1.039,7.677,7.677,0,0,0-2.6-.312Z" transform="translate(-649.928 -371.552)" fill="#087021"/>
            <path id="Trazado_51" data-name="Trazado 51" d="M736.123,372h1.766v7.413h9V372h1.766V389.67h-1.766V381.14h-9v8.531h-1.766Z" transform="translate(-687.664 -371.552)" fill="#087021"/>
            <path id="Trazado_52" data-name="Trazado 52" d="M801.781,370.371a9.17,9.17,0,0,1,6.72,2.679,9.29,9.29,0,0,1-6.576,15.883,9.046,9.046,0,0,1-6.636-2.691,8.848,8.848,0,0,1-2.705-6.512,9.417,9.417,0,0,1,1.232-4.722,9.1,9.1,0,0,1,7.965-4.638Zm.078,1.718a7.546,7.546,0,0,0-6.462,3.776,7.657,7.657,0,0,0-.987,3.86,7.433,7.433,0,0,0,7.449,7.491,7.559,7.559,0,0,0,3.808-1,7.148,7.148,0,0,0,2.732-2.729,7.673,7.673,0,0,0,.981-3.848,7.485,7.485,0,0,0-.981-3.806,7.329,7.329,0,0,0-2.762-2.723A7.472,7.472,0,0,0,801.859,372.089Z" transform="translate(-728.688 -370.371)" fill="#087021"/>
            <path id="Trazado_53" data-name="Trazado 53" d="M871.457,389.67V372h.384L883.6,385.544V372h1.742V389.67h-.4l-11.666-13.383V389.67Z" transform="translate(-785.998 -371.552)" fill="#087021"/>
            <path id="Trazado_54" data-name="Trazado 54" d="M929.324,373.727V372h9.684v1.73h-3.941V389.67h-1.8V373.727Z" transform="translate(-828.044 -371.552)" fill="#087021"/>
            <path id="Trazado_55" data-name="Trazado 55" d="M971.854,372h10.128v1.73H973.62v5.539h8.29V381h-8.29v6.945h8.29v1.73H971.854Z" transform="translate(-858.947 -371.552)" fill="#087021"/>
            <path id="Trazado_56" data-name="Trazado 56" d="M1038.168,374.912h-1.8a5.956,5.956,0,0,1,1.886-3.364,4.94,4.94,0,0,1,3.292-1.177,5.44,5.44,0,0,1,2.577.631,4.666,4.666,0,0,1,1.85,1.7,4.216,4.216,0,0,1,.655,2.235,4.052,4.052,0,0,1-2.271,3.617,5.152,5.152,0,0,1,2.091,1.514,4.839,4.839,0,0,1,1.153,3.148,5.617,5.617,0,0,1-.793,2.865,5.5,5.5,0,0,1-2.162,2.108,6.308,6.308,0,0,1-3.064.745,5.629,5.629,0,0,1-3.809-1.316,6.444,6.444,0,0,1-1.994-3.863h1.73a5.014,5.014,0,0,0,1.31,2.487,4.036,4.036,0,0,0,2.787.973,4.2,4.2,0,0,0,3.088-1.153,3.683,3.683,0,0,0,1.165-2.7,3.5,3.5,0,0,0-.583-1.934,3.673,3.673,0,0,0-1.562-1.358,8.669,8.669,0,0,0-3.034-.565V377.88a5.572,5.572,0,0,0,2.211-.426,3.223,3.223,0,0,0,1.448-1.087,2.5,2.5,0,0,0,.45-1.442,2.618,2.618,0,0,0-.919-1.994,3.313,3.313,0,0,0-2.325-.841,3.121,3.121,0,0,0-1.97.643A4.854,4.854,0,0,0,1038.168,374.912Z" transform="translate(-905.393 -370.371)" fill="#087021"/>
            <path id="Trazado_57" data-name="Trazado 57" d="M1093.683,370.371l1.453.949-4.779,7.232a5.666,5.666,0,0,1,1.8-.324,4.782,4.782,0,0,1,3.574,1.52,5.18,5.18,0,0,1,1.468,3.743,5.424,5.424,0,0,1-.709,2.757,5.172,5.172,0,0,1-2.015,1.958,5.674,5.674,0,0,1-2.808.727,5.4,5.4,0,0,1-2.7-.7,5.038,5.038,0,0,1-1.955-1.976,5.517,5.517,0,0,1-.71-2.727,6.594,6.594,0,0,1,.439-2.277,14.167,14.167,0,0,1,1.57-2.878Zm-1.941,9.407a3.716,3.716,0,1,0,2.63,1.088A3.584,3.584,0,0,0,1091.742,379.778Z" transform="translate(-942.107 -370.371)" fill="#087021"/>
            <path id="Trazado_58" data-name="Trazado 58" d="M1130.726,379.658a15.33,15.33,0,0,1,.751-5.407,6.269,6.269,0,0,1,2.12-2.9,5.123,5.123,0,0,1,3.064-.985,5.243,5.243,0,0,1,3.112.991,6.584,6.584,0,0,1,2.2,2.973,17.92,17.92,0,0,1,.012,10.621,6.558,6.558,0,0,1-2.2,2.974,5.255,5.255,0,0,1-3.124,1,5.114,5.114,0,0,1-3.052-.973,6.3,6.3,0,0,1-2.12-2.9A15.175,15.175,0,0,1,1130.726,379.658Zm1.67.03a14.54,14.54,0,0,0,.535,4.527,4.815,4.815,0,0,0,1.58,2.327,3.491,3.491,0,0,0,4.409.018,4.738,4.738,0,0,0,1.55-2.327,13.813,13.813,0,0,0,.661-4.545,13.6,13.6,0,0,0-.589-4.371,5.113,5.113,0,0,0-1.628-2.489,3.47,3.47,0,0,0-4.4,0,4.844,4.844,0,0,0-1.574,2.32A14.437,14.437,0,0,0,1132.4,379.688Z" transform="translate(-974.383 -370.371)" fill="#087021"/>
          </g>
        </g>
      </g>
    </g>
  </g>
</svg>
