<svg xmlns="http://www.w3.org/2000/svg" width="451" height="47.396" viewBox="0 0 451 47.396">
  <g id="Grupo_1000" data-name="Grupo 1000" transform="translate(0)">
    <path id="Trazado_404" data-name="Trazado 404" d="M2741.143,572.5l1.98-1.468a2.444,2.444,0,0,0,2.155,1.508c1.273,0,1.939-.686,1.939-2.684v-9.6h2.9v9.838c0,2.723-1.371,4.956-4.486,4.956A4.738,4.738,0,0,1,2741.143,572.5Zm12.1-1.841V563.8h2.881v6.485c0,1.686.469,2.292,1.528,2.292a2.645,2.645,0,0,0,2.234-1.371V563.8h2.88v10.972h-2.351l-.217-1.566h-.077a4.4,4.4,0,0,1-3.488,1.841C2754.267,575.043,2753.247,573.4,2753.247,570.654Zm12.595-6.858h2.351l.216,1.449h.058a5.06,5.06,0,0,1,3.567-1.723c2.372,0,3.39,1.645,3.39,4.407v6.839h-2.88v-6.485c0-1.705-.471-2.292-1.549-2.292a3.083,3.083,0,0,0-2.273,1.234v7.544h-2.88Zm12.966,7.132V566.07h-1.547v-2.136l1.7-.137.334-2.959h2.391V563.8h2.7v2.273h-2.7v4.859c0,1.253.508,1.842,1.489,1.842a3.205,3.205,0,0,0,1.078-.236l.469,2.1a7.062,7.062,0,0,1-2.311.411C2779.808,575.043,2778.807,573.378,2778.807,570.929Zm6.816.861c0-2.351,1.9-3.585,6.329-4.056-.058-1.078-.529-1.9-1.881-1.9a6.187,6.187,0,0,0-3.016,1.039l-1.039-1.9a8.761,8.761,0,0,1,4.585-1.449c2.782,0,4.212,1.665,4.212,4.84v6.406h-2.35l-.2-1.174h-.078a5.157,5.157,0,0,1-3.312,1.449A3.117,3.117,0,0,1,2785.624,571.79Zm6.329-.077V569.5c-2.684.334-3.586,1.078-3.586,2.057,0,.863.608,1.236,1.45,1.236A2.982,2.982,0,0,0,2791.952,571.713Z" transform="translate(-2682.046 -554.214)" fill="#fff"/>
    <path id="Trazado_405" data-name="Trazado 405" d="M2741.435,584.1c0-3.567,2.232-5.761,4.6-5.761a3.774,3.774,0,0,1,2.782,1.2l-.1-1.725v-3.861h2.86v15.638h-2.331l-.216-1.137h-.077a4.557,4.557,0,0,1-3.038,1.412C2743.2,589.859,2741.435,587.7,2741.435,584.1Zm7.288,2.254v-4.82a2.954,2.954,0,0,0-2.057-.823c-1.236,0-2.273,1.174-2.273,3.37,0,2.273.823,3.409,2.273,3.409A2.5,2.5,0,0,0,2748.723,586.352Zm5.266-2.254c0-3.548,2.507-5.761,5.114-5.761,3.017,0,4.585,2.214,4.585,5.232a5.4,5.4,0,0,1-.137,1.333h-6.76a2.881,2.881,0,0,0,3.036,2.743,4.532,4.532,0,0,0,2.47-.763l.979,1.763a6.913,6.913,0,0,1-3.82,1.215C2756.38,589.859,2753.989,587.723,2753.989,584.1Zm7.23-1.118c0-1.468-.667-2.408-2.078-2.408a2.47,2.47,0,0,0-2.391,2.408Zm12.3-7.916h3.41l4.662,14.521h-3.036l-1.02-3.724h-4.7l-1.02,3.724h-2.937Zm-.058,8.544h3.448l-.431-1.588c-.45-1.508-.842-3.173-1.254-4.741h-.1c-.373,1.588-.8,3.233-1.234,4.741Zm9.6-5h2.352l.215,1.45h.06a5.055,5.055,0,0,1,3.565-1.725c2.372,0,3.389,1.646,3.389,4.409v6.839h-2.88V583.1c0-1.7-.471-2.292-1.549-2.292a3.086,3.086,0,0,0-2.273,1.234v7.545h-2.88Zm11.928,5.487c0-3.567,2.233-5.761,4.6-5.761a3.776,3.776,0,0,1,2.783,1.2l-.1-1.725v-3.861h2.86v15.638H2802.8l-.216-1.137h-.078a4.55,4.55,0,0,1-3.038,1.412C2796.747,589.859,2794.983,587.7,2794.983,584.1Zm7.289,2.254v-4.82a2.957,2.957,0,0,0-2.057-.823c-1.236,0-2.273,1.174-2.273,3.37,0,2.273.823,3.409,2.273,3.409A2.5,2.5,0,0,0,2802.272,586.352Zm5.4.253c0-2.351,1.9-3.585,6.329-4.056-.058-1.078-.529-1.9-1.881-1.9a6.182,6.182,0,0,0-3.016,1.039l-1.039-1.9a8.76,8.76,0,0,1,4.585-1.45c2.783,0,4.212,1.665,4.212,4.84v6.408h-2.35l-.2-1.176h-.078a5.163,5.163,0,0,1-3.312,1.45A3.118,3.118,0,0,1,2807.675,586.6Zm6.329-.077v-2.215c-2.685.334-3.586,1.078-3.586,2.059,0,.861.608,1.234,1.45,1.234A2.983,2.983,0,0,0,2814,586.528Zm5.795-.019V573.947h2.881v12.679c0,.666.294.881.568.881a1.647,1.647,0,0,0,.392-.039l.352,2.136a3.839,3.839,0,0,1-1.489.255C2820.5,589.859,2819.8,588.546,2819.8,586.508Zm6.053-1.039v-6.858h2.88V585.1c0,1.686.471,2.292,1.529,2.292a2.644,2.644,0,0,0,2.232-1.371v-7.406h2.882v10.973h-2.353l-.214-1.568h-.079a4.406,4.406,0,0,1-3.488,1.842C2826.87,589.859,2825.852,588.212,2825.852,585.469Zm11.908-1.371a5.474,5.474,0,0,1,5.6-5.761,4.8,4.8,0,0,1,3.195,1.215l-1.373,1.862a2.491,2.491,0,0,0-1.665-.726c-1.686,0-2.822,1.352-2.822,3.411,0,2.076,1.157,3.409,2.723,3.409a3.412,3.412,0,0,0,2.136-.881l1.157,1.9a5.529,5.529,0,0,1-3.606,1.333C2840.071,589.859,2837.76,587.742,2837.76,584.1Zm11.007-5.487h2.882v10.973h-2.882Zm.1-3.156,3.331-3.977,1.979,1.92-3.88,3.449Zm5.307,11.149c0-2.351,1.9-3.585,6.329-4.056-.057-1.078-.529-1.9-1.881-1.9a6.186,6.186,0,0,0-3.017,1.039l-1.039-1.9a8.767,8.767,0,0,1,4.585-1.45c2.783,0,4.214,1.665,4.214,4.84v6.408h-2.352l-.2-1.176h-.079a5.16,5.16,0,0,1-3.312,1.45A3.118,3.118,0,0,1,2854.173,586.6Zm6.329-.077v-2.215c-2.684.334-3.586,1.078-3.586,2.059,0,.861.608,1.234,1.45,1.234A2.981,2.981,0,0,0,2860.5,586.528Z" transform="translate(-2681.867 -547.327)" fill="#fff"/>
    <path id="Trazado_406" data-name="Trazado 406" d="M2718.325,556.508h9.465l18.89,47.4h-9.525Z" transform="translate(-2696.04 -556.508)" fill="#fff" fill-rule="evenodd"/>
    <path id="Trazado_407" data-name="Trazado 407" d="M2736.262,556.508H2726.8l-22.286,47.4h9.465Z" transform="translate(-2704.511 -556.508)" fill="#fff" fill-rule="evenodd"/>
    <path id="Trazado_408" data-name="Trazado 408" d="M2737.155,590.747h9.526a28.608,28.608,0,0,0-23.858-12.785,29.28,29.28,0,0,0-4.5.342v7.419a21.31,21.31,0,0,1,18.831,5.024" transform="translate(-2696.039 -543.351)" fill="#fff" fill-rule="evenodd"/>
    <line id="Línea_172" data-name="Línea 172" y2="46.683" transform="translate(200.71 0.114)" fill="#fff"/>
    <line id="Línea_173" data-name="Línea 173" y2="46.683" transform="translate(200.71 0.114)" fill="none" stroke="#fff" stroke-miterlimit="10" stroke-width="0.485"/>
    <line id="Línea_174" data-name="Línea 174" y2="46.683" transform="translate(392.274 0.114)" fill="#fff"/>
    <line id="Línea_175" data-name="Línea 175" y2="46.683" transform="translate(357.284 0.114)" fill="none" stroke="#fff" stroke-miterlimit="10" stroke-width="0.485"/>
    <g id="Grupo_997" data-name="Grupo 997" transform="translate(210.169 8.69)">
      <path id="Trazado_409" data-name="Trazado 409" d="M2839.992,572.806c-1.889,0-3.08-1.554-3.08-4.1,0-2.512,1.278-4.051,3.122-4.051a2.844,2.844,0,0,1,2.091.956l.918-1.074a4.137,4.137,0,0,0-3.037-1.35c-2.7,0-4.821,2.091-4.821,5.577s2.061,5.506,4.748,5.506a4.22,4.22,0,0,0,3.327-1.541l-.9-1.06A3.1,3.1,0,0,1,2839.992,572.806Z" transform="translate(-2834.544 -561.099)" fill="#fff"/>
      <path id="Trazado_410" data-name="Trazado 410" d="M2848.178,569.064c0-2.659-1.786-4.2-3.762-4.2s-3.762,1.539-3.762,4.2a3.783,3.783,0,1,0,7.524,0Zm-5.794,0c0-1.686.784-2.818,2.031-2.818,1.265,0,2.049,1.132,2.049,2.818s-.784,2.817-2.049,2.817C2843.169,571.88,2842.385,570.762,2842.385,569.064Z" transform="translate(-2831.189 -560.072)" fill="#fff"/>
      <path id="Trazado_411" data-name="Trazado 411" d="M2850.456,564.866a3.8,3.8,0,0,0-2.643,1.307h-.045l-.129-1.1h-1.368v7.987h1.671v-5.663a2.679,2.679,0,0,1,1.947-1.091c.946,0,1.352.553,1.352,1.931v4.822h1.67v-5.025C2852.911,566,2852.155,564.866,2850.456,564.866Z" transform="translate(-2827.744 -560.072)" fill="#fff"/>
      <path id="Trazado_412" data-name="Trazado 412" d="M2854.153,571.982a3.616,3.616,0,0,1-2.265-.915l-.784,1.074a4.948,4.948,0,0,0,3.008,1.105c1.971,0,3.035-1.09,3.035-2.426,0-1.51-1.236-2.005-2.354-2.425-.87-.321-1.655-.582-1.655-1.263,0-.553.406-.989,1.292-.989a2.987,2.987,0,0,1,1.771.7l.784-1.031a4.162,4.162,0,0,0-2.584-.944c-1.773,0-2.848,1-2.848,2.338s1.178,1.918,2.252,2.325c.858.334,1.755.653,1.755,1.379C2855.561,571.517,2855.115,571.982,2854.153,571.982Z" transform="translate(-2824.781 -560.072)" fill="#fff"/>
      <path id="Trazado_413" data-name="Trazado 413" d="M2859.225,573.247a4.841,4.841,0,0,0,2.7-.844l-.583-1.06a3.4,3.4,0,0,1-1.9.6,2.41,2.41,0,0,1-2.466-2.441h5.181a4.159,4.159,0,0,0,.089-.855c0-2.25-1.147-3.777-3.267-3.777-1.86,0-3.646,1.612-3.646,4.2A3.843,3.843,0,0,0,2859.225,573.247Zm-.218-7.074c1.163,0,1.787.8,1.787,2.165h-3.834A2.162,2.162,0,0,1,2859.007,566.173Z" transform="translate(-2822.186 -560.072)" fill="#fff"/>
      <path id="Trazado_414" data-name="Trazado 414" d="M2861.269,573.6c0,.945-.2,1.483-.942,1.483a2.822,2.822,0,0,1-.729-.131l-.3,1.249a3.33,3.33,0,0,0,1.236.218c1.773,0,2.41-1.176,2.41-2.846v-8.584h-1.67Z" transform="translate(-2819.758 -559.995)" fill="#fff"/>
      <path id="Trazado_415" data-name="Trazado 415" d="M2861.412,562.831a1,1,0,1,0,0,1.989,1,1,0,1,0,0-1.989Z" transform="translate(-2819.089 -561.32)" fill="#fff"/>
      <path id="Trazado_416" data-name="Trazado 416" d="M2866.388,573.247a4.84,4.84,0,0,0,2.7-.844l-.583-1.06a3.4,3.4,0,0,1-1.9.6,2.41,2.41,0,0,1-2.467-2.441h5.184a4.307,4.307,0,0,0,.086-.855c0-2.25-1.147-3.777-3.266-3.777-1.86,0-3.646,1.612-3.646,4.2A3.843,3.843,0,0,0,2866.388,573.247Zm-.218-7.074c1.164,0,1.788.8,1.788,2.165h-3.835A2.162,2.162,0,0,1,2866.17,566.173Z" transform="translate(-2817.792 -560.072)" fill="#fff"/>
      <path id="Trazado_417" data-name="Trazado 417" d="M2869.211,566.507h-.04l-.133-1.437h-1.365v7.987h1.67v-4.982c.5-1.263,1.276-1.713,1.931-1.713a2.341,2.341,0,0,1,.8.131l.307-1.452a1.985,1.985,0,0,0-.9-.174A2.762,2.762,0,0,0,2869.211,566.507Z" transform="translate(-2814.618 -560.072)" fill="#fff"/>
      <path id="Trazado_418" data-name="Trazado 418" d="M2874.55,563l-1.163-1.1-2.366,2.8.841.827Z" transform="translate(-2812.565 -561.895)" fill="#fff"/>
      <rect id="Rectángulo_669" data-name="Rectángulo 669" width="1.67" height="7.988" transform="translate(58.572 4.997)" fill="#fff"/>
      <path id="Trazado_419" data-name="Trazado 419" d="M2876.667,564.866a6.113,6.113,0,0,0-3.223,1.045l.624,1.133a4.4,4.4,0,0,1,2.311-.813c1.178,0,1.512.813,1.524,1.742-3.325.365-4.777,1.249-4.777,2.964a2.207,2.207,0,0,0,2.351,2.31,3.954,3.954,0,0,0,2.542-1.105h.061l.129.915h1.364V568.25C2879.573,566.129,2878.66,564.866,2876.667,564.866Zm1.236,6.129a2.812,2.812,0,0,1-1.917.929c-.712,0-1.25-.32-1.25-1.1,0-.9.8-1.51,3.167-1.788Z" transform="translate(-2811.274 -560.072)" fill="#fff"/>
      <path id="Trazado_420" data-name="Trazado 420" d="M2885.264,565.729l.073,1.323a3.083,3.083,0,0,0-2.149-.9c-1.787,0-3.428,1.612-3.428,4.2,0,2.657,1.292,4.183,3.3,4.183a3.344,3.344,0,0,0,2.321-1.09h.057l.133.9h1.365V562.769h-1.67Zm0,6.45a2.346,2.346,0,0,1-1.815.973c-1.249,0-1.961-1-1.961-2.817,0-1.728.9-2.789,2.017-2.789a2.5,2.5,0,0,1,1.758.728Z" transform="translate(-2807.206 -561.358)" fill="#fff"/>
      <path id="Trazado_421" data-name="Trazado 421" d="M2888.8,564.866c-1.858,0-3.646,1.612-3.646,4.2a3.844,3.844,0,0,0,3.893,4.183,4.84,4.84,0,0,0,2.7-.844l-.583-1.06a3.388,3.388,0,0,1-1.9.6,2.412,2.412,0,0,1-2.467-2.441h5.184a4.343,4.343,0,0,0,.088-.855C2892.064,566.392,2890.917,564.866,2888.8,564.866Zm-2.02,3.472a2.165,2.165,0,0,1,2.049-2.165c1.161,0,1.786.8,1.786,2.165Z" transform="translate(-2803.901 -560.072)" fill="#fff"/>
      <path id="Trazado_422" data-name="Trazado 422" d="M2897.1,568.274l-1.465-.624c-.873-.348-1.731-.7-1.731-1.626,0-.842.713-1.365,1.8-1.365a3.414,3.414,0,0,1,2.35.956l.887-1.074a4.586,4.586,0,0,0-3.238-1.35c-2.036,0-3.517,1.265-3.517,2.949a3.077,3.077,0,0,0,2.179,2.8l1.481.637c.987.437,1.715.74,1.715,1.715,0,.9-.728,1.51-2.02,1.51a4.144,4.144,0,0,1-2.846-1.263l-.989,1.162a5.334,5.334,0,0,0,3.806,1.57c2.339,0,3.762-1.4,3.762-3.109A2.987,2.987,0,0,0,2897.1,568.274Z" transform="translate(-2799.877 -561.099)" fill="#fff"/>
      <path id="Trazado_423" data-name="Trazado 423" d="M2900.556,564.866a6.094,6.094,0,0,0-3.223,1.045l.624,1.133a4.389,4.389,0,0,1,2.309-.813c1.176,0,1.51.813,1.526,1.742-3.328.365-4.78,1.249-4.78,2.964a2.208,2.208,0,0,0,2.354,2.31,3.974,3.974,0,0,0,2.543-1.105h.057l.132.915h1.365V568.25C2903.462,566.129,2902.544,564.866,2900.556,564.866Zm1.236,6.129a2.823,2.823,0,0,1-1.92.929c-.711,0-1.247-.32-1.247-1.1,0-.9.8-1.51,3.167-1.788Z" transform="translate(-2796.627 -560.072)" fill="#fff"/>
      <path id="Trazado_424" data-name="Trazado 424" d="M2904.275,573.166c-.2,0-.39-.16-.39-.61v-9.788h-1.669v9.7c0,1.292.45,2.063,1.653,2.063a2.625,2.625,0,0,0,.9-.132l-.218-1.263A1.172,1.172,0,0,1,2904.275,573.166Z" transform="translate(-2793.436 -561.358)" fill="#fff"/>
      <path id="Trazado_425" data-name="Trazado 425" d="M2909.5,570.54c-.668.842-1.178,1.19-1.918,1.19-.942,0-1.338-.552-1.338-1.918v-4.82h-1.67v5.024c0,2.034.741,3.154,2.456,3.154a3.337,3.337,0,0,0,2.6-1.4h.043l.131,1.205h1.366v-7.987H2909.5Z" transform="translate(-2791.99 -559.995)" fill="#fff"/>
      <path id="Trazado_426" data-name="Trazado 426" d="M2915.125,562.769v2.96l.072,1.323a3.075,3.075,0,0,0-2.148-.9c-1.786,0-3.428,1.612-3.428,4.2,0,2.657,1.292,4.183,3.3,4.183a3.342,3.342,0,0,0,2.321-1.09h.058l.132.9h1.364V562.769Zm0,9.41a2.344,2.344,0,0,1-1.815.973c-1.247,0-1.96-1-1.96-2.817,0-1.728.9-2.789,2.017-2.789a2.5,2.5,0,0,1,1.758.728Z" transform="translate(-2788.894 -561.358)" fill="#fff"/>
      <path id="Trazado_427" data-name="Trazado 427" d="M2839.405,579.1c-.2.726-.421,1.525-.623,2.252h-.073c-.25-.742-.5-1.542-.727-2.252l-1.481-4.111h-1.715l3.166,7.929-.162.552c-.288.857-.8,1.5-1.669,1.5a2.1,2.1,0,0,1-.579-.118l-.32,1.308a2.837,2.837,0,0,0,1,.16c1.684,0,2.527-1.147,3.152-2.862l2.933-8.466h-1.627Z" transform="translate(-2834.787 -553.862)" fill="#fff"/>
      <path id="Trazado_428" data-name="Trazado 428" d="M2841.941,584.012h1.686v-4.6h3.951V578h-3.951v-3.268h4.648v-1.423h-6.333Z" transform="translate(-2830.399 -554.895)" fill="#fff"/>
      <path id="Trazado_429" data-name="Trazado 429" d="M2849.588,574.866a6.113,6.113,0,0,0-3.223,1.045l.625,1.133a4.4,4.4,0,0,1,2.31-.813c1.177,0,1.512.813,1.525,1.742-3.325.365-4.777,1.249-4.777,2.964a2.207,2.207,0,0,0,2.35,2.31,3.955,3.955,0,0,0,2.542-1.105h.06l.129.915h1.365v-4.806C2852.493,576.129,2851.58,574.866,2849.588,574.866Zm1.236,6.129a2.814,2.814,0,0,1-1.917.929c-.712,0-1.251-.319-1.251-1.1,0-.9.8-1.51,3.167-1.788Z" transform="translate(-2827.881 -553.94)" fill="#fff"/>
      <path id="Trazado_430" data-name="Trazado 430" d="M2860.064,574.866a3.679,3.679,0,0,0-2.6,1.466,2.136,2.136,0,0,0-2.21-1.466,3.473,3.473,0,0,0-2.467,1.323h-.043l-.129-1.12h-1.368v7.987h1.67v-5.663a2.649,2.649,0,0,1,1.788-1.091c.916,0,1.335.553,1.335,1.931v4.822h1.67v-5.663a2.667,2.667,0,0,1,1.8-1.091c.9,0,1.336.553,1.336,1.931v4.822h1.67v-5.025C2862.517,576,2861.733,574.866,2860.064,574.866Z" transform="translate(-2824.692 -553.94)" fill="#fff"/>
      <path id="Trazado_431" data-name="Trazado 431" d="M2860.37,572.831a1,1,0,1,0,0,1.989,1,1,0,1,0,0-1.989Z" transform="translate(-2819.729 -555.188)" fill="#fff"/>
      <rect id="Rectángulo_670" data-name="Rectángulo 670" width="1.67" height="7.988" transform="translate(39.812 21.13)" fill="#fff"/>
      <path id="Trazado_432" data-name="Trazado 432" d="M2863.85,583.167c-.2,0-.394-.16-.394-.61v-9.788h-1.669v9.7c0,1.292.45,2.063,1.656,2.063a2.64,2.64,0,0,0,.9-.132l-.221-1.263A1.15,1.15,0,0,1,2863.85,583.167Z" transform="translate(-2818.229 -555.226)" fill="#fff"/>
      <path id="Trazado_433" data-name="Trazado 433" d="M2865.113,572.831a1,1,0,1,0,0,1.989,1,1,0,1,0,0-1.989Z" transform="translate(-2816.821 -555.188)" fill="#fff"/>
      <rect id="Rectángulo_671" data-name="Rectángulo 671" width="1.67" height="7.988" transform="translate(47.465 21.13)" fill="#fff"/>
      <path id="Trazado_434" data-name="Trazado 434" d="M2869.784,574.866a6.113,6.113,0,0,0-3.225,1.045l.625,1.133a4.4,4.4,0,0,1,2.31-.813c1.178,0,1.512.813,1.524,1.742-3.323.365-4.777,1.249-4.777,2.964a2.208,2.208,0,0,0,2.35,2.31,3.956,3.956,0,0,0,2.542-1.105h.062l.129.915h1.363v-4.806C2872.688,576.129,2871.775,574.866,2869.784,574.866Zm1.234,6.129a2.812,2.812,0,0,1-1.915.929c-.713,0-1.252-.319-1.252-1.1,0-.9.8-1.51,3.167-1.788Z" transform="translate(-2815.497 -553.94)" fill="#fff"/>
      <path id="Trazado_435" data-name="Trazado 435" d="M2874.611,578.4c-.873-.321-1.657-.583-1.657-1.263,0-.553.407-.989,1.291-.989a2.984,2.984,0,0,1,1.775.7l.784-1.031a4.161,4.161,0,0,0-2.586-.944c-1.771,0-2.846,1-2.846,2.338s1.176,1.918,2.251,2.325c.856.334,1.759.653,1.759,1.379,0,.61-.452,1.074-1.408,1.074a3.623,3.623,0,0,1-2.266-.915l-.784,1.074a4.951,4.951,0,0,0,3.005,1.105c1.977,0,3.035-1.09,3.035-2.426C2876.961,579.31,2875.729,578.815,2874.611,578.4Z" transform="translate(-2812.626 -553.94)" fill="#fff"/>
    </g>
    <g id="Grupo_998" data-name="Grupo 998" transform="translate(366.743 11.354)">
      <path id="Trazado_436" data-name="Trazado 436" d="M2957.763,567.912l-1.186-.51c-.645-.271-1.368-.576-1.368-1.378,0-.745.611-1.22,1.548-1.22a2.685,2.685,0,0,1,1.886.778l.555-.666a3.394,3.394,0,0,0-2.441-1.026,2.213,2.213,0,0,0-.927,4.325l1.2.521c.781.35,1.379.621,1.379,1.47,0,.813-.656,1.355-1.739,1.355a3.211,3.211,0,0,1-2.284-1.028l-.632.711a3.955,3.955,0,0,0,2.9,1.231c1.729,0,2.814-1.041,2.814-2.351A2.308,2.308,0,0,0,2957.763,567.912Z" transform="translate(-2953.753 -563.335)" fill="#fff"/>
      <path id="Trazado_437" data-name="Trazado 437" d="M2960.8,571.66a3.652,3.652,0,0,0,2.032-.632l-.371-.679a2.637,2.637,0,0,1-1.537.487,2.034,2.034,0,0,1-2.034-2.147h4.136a4.023,4.023,0,0,0,.046-.587c0-1.752-.881-2.881-2.441-2.881a2.967,2.967,0,0,0-2.768,3.231A2.933,2.933,0,0,0,2960.8,571.66Zm-.159-5.616c.962,0,1.525.668,1.525,1.9h-3.288A1.886,1.886,0,0,1,2960.641,566.044Z" transform="translate(-2951.232 -562.519)" fill="#fff"/>
      <path id="Trazado_438" data-name="Trazado 438" d="M2965.1,566.259l.194-.9a1.32,1.32,0,0,0-.657-.135,2.118,2.118,0,0,0-1.739,1.278h-.034l-.091-1.12h-.847v6.135h1.026V567.57c.408-1.052,1.041-1.412,1.549-1.412A1.439,1.439,0,0,1,2965.1,566.259Z" transform="translate(-2948.739 -562.519)" fill="#fff"/>
      <path id="Trazado_439" data-name="Trazado 439" d="M2967.609,571.453l2.18-6.135h-1.017l-1.163,3.491c-.182.6-.374,1.233-.565,1.809H2967c-.194-.576-.385-1.208-.578-1.809l-1.152-3.491H2964.2l2.215,6.135Z" transform="translate(-2947.348 -562.459)" fill="#fff"/>
      <rect id="Rectángulo_672" data-name="Rectángulo 672" width="1.027" height="6.135" transform="translate(23.466 2.859)" fill="#fff"/>
      <path id="Trazado_440" data-name="Trazado 440" d="M2968.884,565.048a.678.678,0,1,0-.691-.689A.652.652,0,0,0,2968.884,565.048Z" transform="translate(-2944.897 -563.456)" fill="#fff"/>
      <path id="Trazado_441" data-name="Trazado 441" d="M2972.81,570.8c-1.131,0-1.9-.937-1.9-2.35s.813-2.373,1.931-2.373a1.817,1.817,0,0,1,1.222.544l.531-.679a2.623,2.623,0,0,0-1.8-.723,2.986,2.986,0,0,0-2.96,3.231,2.886,2.886,0,0,0,2.881,3.209,2.973,2.973,0,0,0,1.988-.779l-.452-.689A2.161,2.161,0,0,1,2972.81,570.8Z" transform="translate(-2943.887 -562.519)" fill="#fff"/>
      <rect id="Rectángulo_673" data-name="Rectángulo 673" width="1.027" height="6.135" transform="translate(32.004 2.859)" fill="#fff"/>
      <path id="Trazado_442" data-name="Trazado 442" d="M2974.176,565.048a.678.678,0,1,0-.691-.689A.652.652,0,0,0,2974.176,565.048Z" transform="translate(-2941.651 -563.456)" fill="#fff"/>
      <path id="Trazado_443" data-name="Trazado 443" d="M2980.824,568.451a2.867,2.867,0,1,0-2.846,3.209A2.942,2.942,0,0,0,2980.824,568.451Zm-2.846,2.35c-1.062,0-1.774-.937-1.774-2.35s.712-2.373,1.774-2.373,1.784.961,1.784,2.373S2979.04,570.8,2977.978,570.8Z" transform="translate(-2940.642 -562.519)" fill="#fff"/>
      <path id="Trazado_444" data-name="Trazado 444" d="M2983.219,563.98l-2.812,8.294h1.062l.8-2.53h3.028l.792,2.53h1.106l-2.813-8.294Zm1.82,4.927h-2.507l.406-1.265c.292-.939.564-1.831.825-2.8h.045c.271.96.53,1.863.835,2.8Z" transform="translate(-2937.406 -563.28)" fill="#fff"/>
      <path id="Trazado_445" data-name="Trazado 445" d="M2988.211,565.22a2.941,2.941,0,0,0-2.057,1.039h-.034l-.09-.881h-.847v6.135h1.026v-4.453a2.343,2.343,0,0,1,1.685-.937c.813,0,1.164.486,1.164,1.639v3.751h1.028v-3.886C2990.085,566.056,2989.5,565.22,2988.211,565.22Z" transform="translate(-2934.478 -562.519)" fill="#fff"/>
      <path id="Trazado_446" data-name="Trazado 446" d="M2993.426,565.908l.046,1.062a2.5,2.5,0,0,0-1.729-.723c-1.4,0-2.655,1.242-2.655,3.231,0,2.046.994,3.209,2.531,3.209a2.739,2.739,0,0,0,1.865-.87h.032l.092.723h.836v-8.994h-1.018Zm0,5.072a2.143,2.143,0,0,1-1.581.849c-1.084,0-1.7-.881-1.7-2.362,0-1.4.779-2.349,1.774-2.349a2.194,2.194,0,0,1,1.5.642Z" transform="translate(-2932.083 -563.546)" fill="#fff"/>
      <path id="Trazado_447" data-name="Trazado 447" d="M2996.043,565.22a4.627,4.627,0,0,0-2.418.8l.407.712a3.387,3.387,0,0,1,1.842-.655c1.005,0,1.265.758,1.265,1.549-2.609.294-3.774.96-3.774,2.294a1.664,1.664,0,0,0,1.8,1.739,3.285,3.285,0,0,0,2.033-.881h.035l.089.734h.849V567.74C2998.168,566.227,2997.533,565.22,2996.043,565.22Zm1.1,4.8a2.51,2.51,0,0,1-1.683.815c-.611,0-1.085-.284-1.085-.983,0-.791.7-1.3,2.769-1.549Z" transform="translate(-2929.46 -562.519)" fill="#fff"/>
      <path id="Trazado_448" data-name="Trazado 448" d="M2998.774,571.828c-.156,0-.294-.124-.294-.442v-7.84h-1.028v7.773c0,.871.316,1.368,1.084,1.368a1.58,1.58,0,0,0,.6-.09l-.147-.791A.9.9,0,0,1,2998.774,571.828Z" transform="translate(-2926.953 -563.546)" fill="#fff"/>
      <path id="Trazado_449" data-name="Trazado 449" d="M3003.143,569.669c-.589.734-1.03,1.039-1.662,1.039-.815,0-1.154-.487-1.154-1.628v-3.762H2999.3v3.888c0,1.558.574,2.394,1.863,2.394a2.634,2.634,0,0,0,2.035-1.108h.032l.081.961h.858v-6.135h-1.028Z" transform="translate(-2925.819 -562.459)" fill="#fff"/>
      <path id="Trazado_450" data-name="Trazado 450" d="M3004.4,570.617l3.231-4.745v-.553h-4.181v.835h2.882L3003.1,570.9v.553h4.645v-.837Z" transform="translate(-2923.489 -562.459)" fill="#fff"/>
      <path id="Trazado_451" data-name="Trazado 451" d="M2958.132,574.908l.047,1.062a2.5,2.5,0,0,0-1.729-.723c-1.4,0-2.656,1.242-2.656,3.232,0,2.046.994,3.209,2.53,3.209a2.737,2.737,0,0,0,1.866-.87h.034l.09.723h.835v-8.994h-1.018Zm0,5.072a2.142,2.142,0,0,1-1.581.849c-1.084,0-1.7-.881-1.7-2.362,0-1.4.781-2.349,1.774-2.349a2.193,2.193,0,0,1,1.5.642Z" transform="translate(-2953.727 -558.027)" fill="#fff"/>
      <path id="Trazado_452" data-name="Trazado 452" d="M2960.791,574.22a2.967,2.967,0,0,0-2.769,3.232,2.932,2.932,0,0,0,2.938,3.209,3.644,3.644,0,0,0,2.032-.632l-.371-.679a2.639,2.639,0,0,1-1.538.487,2.034,2.034,0,0,1-2.034-2.147h4.137a4,4,0,0,0,.045-.587C2963.232,575.349,2962.351,574.22,2960.791,574.22Zm-1.752,2.723a1.885,1.885,0,0,1,1.763-1.9c.961,0,1.524.668,1.524,1.9Z" transform="translate(-2951.134 -557)" fill="#fff"/>
      <path id="Trazado_453" data-name="Trazado 453" d="M2967.255,576.912l-1.186-.51c-.644-.271-1.368-.576-1.368-1.378,0-.745.611-1.22,1.548-1.22a2.686,2.686,0,0,1,1.886.778l.555-.666a3.4,3.4,0,0,0-2.441-1.026,2.213,2.213,0,0,0-.926,4.325l1.2.521c.781.35,1.38.621,1.38,1.47,0,.813-.655,1.355-1.741,1.355a3.207,3.207,0,0,1-2.281-1.028l-.633.711a3.956,3.956,0,0,0,2.9,1.231c1.729,0,2.814-1.04,2.814-2.35A2.306,2.306,0,0,0,2967.255,576.912Z" transform="translate(-2947.931 -557.816)" fill="#fff"/>
      <path id="Trazado_454" data-name="Trazado 454" d="M2970.081,574.22a4.626,4.626,0,0,0-2.42.8l.407.712a3.389,3.389,0,0,1,1.843-.655c1.005,0,1.264.758,1.264,1.549-2.608.294-3.773.96-3.773,2.294a1.664,1.664,0,0,0,1.8,1.739,3.284,3.284,0,0,0,2.032-.881h.035l.091.734h.847V576.74C2972.2,575.227,2971.571,574.22,2970.081,574.22Zm1.094,4.8a2.506,2.506,0,0,1-1.682.815c-.611,0-1.086-.284-1.086-.983,0-.79.7-1.3,2.768-1.549Z" transform="translate(-2945.383 -557)" fill="#fff"/>
      <path id="Trazado_455" data-name="Trazado 455" d="M2972.814,580.828c-.159,0-.3-.124-.3-.442v-7.84h-1.027v7.773c0,.871.318,1.368,1.084,1.368a1.578,1.578,0,0,0,.6-.09l-.147-.79A.9.9,0,0,1,2972.814,580.828Z" transform="translate(-2942.874 -558.027)" fill="#fff"/>
      <path id="Trazado_456" data-name="Trazado 456" d="M2977.18,578.669c-.588.734-1.029,1.039-1.662,1.039-.813,0-1.151-.487-1.151-1.628v-3.762h-1.028v3.888c0,1.558.574,2.394,1.863,2.394a2.63,2.63,0,0,0,2.034-1.108h.032l.081.961h.858v-6.135h-1.028Z" transform="translate(-2941.741 -556.94)" fill="#fff"/>
      <path id="Trazado_457" data-name="Trazado 457" d="M2981.6,574.908l.045,1.062a2.5,2.5,0,0,0-1.728-.723c-1.4,0-2.656,1.242-2.656,3.232,0,2.046.994,3.209,2.531,3.209a2.735,2.735,0,0,0,1.864-.87h.034l.09.723h.837v-8.994H2981.6Zm0,5.072a2.143,2.143,0,0,1-1.581.849c-1.084,0-1.7-.881-1.7-2.362,0-1.4.779-2.349,1.773-2.349a2.195,2.195,0,0,1,1.5.642Z" transform="translate(-2939.333 -558.027)" fill="#fff"/>
    </g>
  </g>
</svg>
